{"glyphs":{":":{"x_min":0,"x_max":296,"ha":296,"o":"m 68 110 q 93 110 111 92 q 129 75 129 49 q 129 23 111 5 q 94 -13 68 -13 q 43 -13 24 5 q 6 24 6 49 q 6 74 24 92 q 42 110 68 110 z m 166 468 q 191 468 210 450 q 228 432 228 406 q 228 380 210 362 q 192 344 166 344 q 141 344 122 363 q 104 381 104 406 q 104 432 122 450 q 141 468 166 468 z"},"$":{"x_min":0,"x_max":546,"ha":546,"o":"m 275 412 l 342 660 q 269 657 227 622 q 185 586 185 527 q 185 489 207 461 q 229 432 275 412 z m 219 28 q 293 31 341 70 q 388 109 388 167 q 388 213 365 244 q 343 274 292 297 z m 126 -145 l 162 -11 q 94 4 51 49 q 8 93 8 146 q 8 189 27 212 q 46 236 81 236 q 106 236 124 217 q 142 198 142 172 q 142 155 134 142 q 126 128 111 120 q 107 118 100 114 q 82 106 82 95 q 82 77 108 59 q 133 41 173 31 l 249 316 q 174 348 140 390 q 105 433 105 491 q 105 581 173 640 q 242 700 347 700 l 352 700 l 367 764 l 416 764 l 398 695 q 463 680 500 641 q 537 602 537 548 q 537 513 519 492 q 501 472 470 472 q 445 472 428 488 q 411 503 411 526 q 411 542 419 555 q 427 568 440 575 q 444 577 451 580 q 468 588 468 600 q 468 614 445 631 q 422 647 388 656 l 317 391 q 397 358 436 313 q 474 269 474 207 q 474 113 399 49 q 324 -16 212 -16 l 208 -16 l 173 -145 z"},"?":{"x_min":0,"x_max":498,"ha":498,"o":"m 196 106 q 221 106 239 88 q 257 70 257 45 q 257 20 239 2 q 221 -15 196 -15 q 171 -15 154 2 q 136 20 136 45 q 136 70 154 88 q 171 106 196 106 z m 322 307 l 357 307 q 350 256 319 229 q 289 201 240 201 q 200 201 174 229 q 149 257 149 302 q 149 347 174 388 q 200 430 259 480 q 273 492 299 513 q 387 584 387 630 q 387 667 365 688 q 342 710 305 710 q 250 710 213 664 q 177 617 177 544 l 177 531 l 144 531 q 144 534 143 539 q 143 544 143 553 q 143 639 189 691 q 235 743 310 743 q 373 743 411 705 q 449 667 449 605 q 449 551 421 508 q 393 464 333 425 q 323 418 304 406 q 197 338 197 288 q 197 265 210 251 q 223 238 245 238 q 272 238 294 257 q 315 276 322 307 z"},"<":{"x_min":0,"x_max":833,"ha":833,"o":"m 704 566 l 704 491 l 231 298 l 704 106 l 704 31 l 129 267 l 129 330 z"},"'":{"x_min":0,"x_max":172,"ha":172,"o":"m 95 420 l 78 420 l 44 644 q 44 645 43 648 q 42 658 42 662 q 42 687 53 700 q 65 714 86 714 q 106 714 118 701 q 130 688 130 664 q 130 661 130 657 q 129 653 128 644 z"},"=":{"x_min":0,"x_max":833,"ha":833,"o":"m 124 235 l 709 235 l 709 167 l 124 167 z m 124 429 l 709 429 l 709 361 l 124 361 z"},"a":{"x_min":0,"x_max":554,"ha":554,"o":"m 297 68 q 264 27 225 5 q 185 -16 143 -16 q 80 -16 40 31 q 0 78 0 151 q 0 204 16 255 q 32 307 62 352 q 102 411 150 441 q 198 472 252 472 q 297 472 328 448 q 358 423 372 377 l 402 456 l 482 456 l 459 394 q 419 283 394 189 q 369 96 369 71 q 369 55 374 47 q 378 39 388 39 q 405 39 432 71 q 459 102 494 164 l 523 147 q 480 65 441 27 q 401 -11 361 -11 q 330 -11 313 7 q 297 25 297 59 z m 91 137 q 91 90 113 64 q 135 38 175 38 q 210 38 240 62 q 269 85 293 131 q 315 174 329 229 q 343 285 343 326 q 343 371 321 396 q 299 422 261 422 q 231 422 203 402 q 175 383 151 345 q 125 303 108 245 q 91 187 91 137 z"},"L":{"x_min":0,"x_max":662,"ha":662,"o":"m 196 112 q 191 95 190 85 q 188 75 188 70 q 188 54 204 48 q 220 42 277 42 q 398 42 470 91 q 541 139 596 258 l 636 258 l 557 0 l -27 0 l -18 44 l 36 49 q 56 51 66 59 q 76 67 80 84 l 213 607 q 216 621 218 632 q 220 643 220 650 q 220 666 207 671 q 194 677 153 677 l 113 677 l 121 722 l 454 722 l 444 678 l 373 674 q 354 672 344 664 q 333 656 329 639 z"},"3":{"x_min":0,"x_max":546,"ha":546,"o":"m 346 368 q 405 354 435 316 q 465 278 465 219 q 465 115 390 49 q 316 -17 199 -17 q 115 -17 60 27 q 6 71 6 139 q 6 181 26 205 q 46 230 79 230 q 107 230 125 213 q 142 196 142 169 q 142 153 135 141 q 129 129 115 119 q 109 115 97 110 q 76 103 76 88 q 76 63 109 44 q 142 24 188 24 q 264 24 313 84 q 362 144 362 239 q 362 291 341 319 q 320 348 283 348 q 267 348 246 345 q 226 342 221 342 q 208 342 201 349 q 193 356 193 368 q 193 379 201 388 q 209 396 220 396 q 225 396 242 393 q 260 390 273 390 q 333 390 375 440 q 416 490 416 563 q 416 611 388 637 q 360 663 308 663 q 268 663 236 646 q 205 629 205 611 q 205 604 225 585 q 244 566 244 544 q 244 521 227 504 q 210 488 185 488 q 157 488 141 506 q 124 524 124 555 q 124 617 181 661 q 238 705 321 705 q 408 705 461 661 q 514 616 514 544 q 514 484 471 438 q 427 393 346 368 z"},";":{"x_min":0,"x_max":296,"ha":296,"o":"m -47 -133 q 13 -107 44 -76 q 76 -44 78 -9 l 75 -9 q 42 -9 24 6 q 6 20 6 48 q 6 74 24 91 q 42 109 67 109 q 97 109 117 85 q 138 62 138 26 q 138 -36 94 -86 q 49 -136 -31 -165 z m 167 468 q 192 468 211 450 q 229 432 229 406 q 229 380 211 362 q 193 344 167 344 q 142 344 124 363 q 106 381 106 406 q 106 432 124 450 q 142 468 167 468 z"},"J":{"x_min":0,"x_max":590,"ha":590,"o":"m 409 607 q 412 619 414 630 q 415 641 415 650 q 415 666 402 671 q 389 677 349 677 l 315 677 l 323 722 l 626 722 l 618 678 l 569 674 q 550 672 540 665 q 530 657 525 639 l 419 223 q 386 92 324 37 q 262 -18 150 -18 q 67 -18 17 28 q -33 73 -33 149 q -33 211 2 251 q 37 292 88 292 q 122 292 143 272 q 164 252 164 221 q 164 192 144 171 q 124 151 94 151 q 79 151 62 159 q 44 167 41 167 q 28 167 21 158 q 14 148 14 131 q 14 87 49 59 q 83 30 137 30 q 206 30 244 73 q 282 116 314 239 z"},"V":{"x_min":0,"x_max":664,"ha":664,"o":"m 275 -18 l 240 -18 l 128 617 q 122 651 104 664 q 86 676 34 678 l 34 722 l 329 722 l 329 678 l 276 675 q 250 673 242 667 q 234 660 234 644 q 234 634 235 626 q 235 618 237 611 l 316 154 l 578 597 q 584 607 587 618 q 590 628 590 637 q 590 660 571 669 q 552 678 495 678 l 500 722 l 753 722 l 748 678 q 708 671 682 649 q 655 627 620 567 z"},"\"":{"x_min":0,"x_max":335,"ha":335,"o":"m 257 420 l 240 420 l 206 644 q 206 647 205 651 q 205 655 205 662 q 205 687 216 700 q 227 714 248 714 q 269 714 280 701 q 292 688 292 664 q 292 656 292 652 q 292 648 291 644 z m 95 420 l 78 420 l 44 644 q 43 652 42 657 q 42 661 42 664 q 42 688 54 701 q 65 714 86 714 q 107 714 119 700 q 130 687 130 662 q 130 654 130 651 q 129 647 129 644 z"},"7":{"x_min":0,"x_max":546,"ha":546,"o":"m 478 606 l 265 606 q 218 606 190 583 q 161 559 119 478 l 84 492 l 175 700 q 265 694 305 693 q 346 691 374 691 q 408 691 456 692 q 504 694 566 697 l 566 666 q 462 516 392 387 q 322 258 288 152 q 280 127 270 83 q 260 40 252 25 q 240 0 224 -12 q 209 -23 187 -23 q 161 -23 146 -6 q 130 12 130 41 q 130 104 337 401 q 426 530 478 606 z"},"S":{"x_min":0,"x_max":661,"ha":661,"o":"m 42 0 l 5 0 l 60 284 l 101 277 l 101 267 q 101 148 152 88 q 202 28 302 28 q 385 28 432 66 q 480 105 480 171 q 480 260 320 315 l 319 316 q 209 354 167 400 q 125 446 125 522 q 125 616 191 678 q 257 740 358 740 q 415 740 461 721 q 507 702 545 662 l 597 716 l 635 716 l 584 455 l 545 463 q 544 580 498 638 q 453 696 362 696 q 296 696 255 659 q 214 622 214 564 q 214 519 244 490 q 275 461 366 430 q 490 387 533 342 q 576 296 576 218 q 576 112 501 46 q 426 -20 307 -20 q 244 -20 194 0 q 144 21 102 63 z"},"}":{"x_min":0,"x_max":500,"ha":500,"o":"m 86 740 l 91 740 q 198 740 239 704 q 279 668 279 571 l 279 470 q 279 392 307 362 q 335 333 414 326 l 414 295 q 335 289 307 259 q 279 229 279 151 l 279 50 q 279 -47 239 -83 q 198 -119 91 -119 l 86 -119 l 86 -93 q 153 -92 177 -67 q 201 -41 201 35 l 201 104 q 201 215 230 255 q 258 294 336 310 q 259 326 230 365 q 201 405 201 516 l 201 585 q 201 662 177 688 q 152 713 86 714 z"},"Z":{"x_min":0,"x_max":655,"ha":655,"o":"m 119 47 l 242 47 q 369 47 440 97 q 511 146 564 270 l 598 257 l 519 0 l -25 0 l -25 37 l 505 678 l 427 678 q 306 678 235 632 q 165 586 118 477 l 79 484 l 158 722 l 650 722 l 650 691 z"},"x":{"x_min":0,"x_max":494,"ha":494,"o":"m 194 156 q 143 62 104 23 q 65 -17 27 -17 q -4 -17 -23 2 q -43 21 -43 52 q -43 76 -28 92 q -14 108 6 108 q 23 108 34 100 q 44 92 49 76 q 50 72 51 66 q 54 49 64 49 q 77 49 97 73 q 116 98 146 151 l 183 217 l 163 309 q 152 358 141 382 q 130 405 118 405 q 106 405 88 385 q 70 365 38 315 l 10 332 q 54 406 87 439 q 121 471 153 471 q 183 471 202 446 q 221 421 232 366 l 244 309 q 292 395 329 433 q 366 471 402 471 q 429 471 444 456 q 460 440 460 414 q 460 390 447 375 q 435 361 413 361 q 392 361 379 381 q 367 402 359 402 q 348 402 319 360 q 290 318 256 253 l 275 159 q 289 87 299 67 q 309 46 325 46 q 340 46 362 70 q 383 93 416 145 l 444 126 q 405 56 366 20 q 327 -17 292 -17 q 256 -17 235 19 q 214 55 194 156 z"},")":{"x_min":0,"x_max":331,"ha":331,"o":"m 151 723 l 172 739 q 230 667 260 579 q 290 491 290 390 q 290 289 254 192 q 218 95 151 15 q 104 -40 51 -78 q -2 -115 -57 -132 l -65 -109 q 4 -82 57 -27 q 110 28 147 111 q 188 203 208 295 q 229 388 229 481 q 229 553 210 613 q 190 672 151 723 z"},"&":{"x_min":0,"x_max":880,"ha":880,"o":"m 392 460 q 467 481 510 523 q 552 564 552 617 q 552 652 531 672 q 511 692 475 692 q 429 692 405 659 q 380 626 380 565 q 380 545 383 518 q 386 492 392 460 z m 422 86 q 378 152 348 227 q 318 302 302 384 q 234 354 200 308 q 166 261 166 196 q 166 129 205 86 q 244 43 305 43 q 333 43 361 53 q 390 64 422 86 z m 451 48 q 399 14 352 -1 q 305 -17 254 -17 q 164 -17 109 34 q 54 86 54 170 q 54 253 111 314 q 168 375 294 425 q 289 449 287 472 q 284 495 284 518 q 284 621 333 679 q 382 738 469 738 q 539 738 582 701 q 625 665 625 606 q 625 544 570 498 q 515 453 399 419 q 420 329 447 259 q 474 189 503 147 q 556 192 587 237 q 618 281 618 309 q 618 335 599 347 q 580 359 538 359 l 527 359 l 537 401 l 809 401 l 798 360 q 758 358 728 339 q 698 321 667 277 q 663 271 653 256 q 594 167 530 110 q 552 82 573 69 q 595 56 620 56 q 655 56 686 80 q 717 103 747 151 l 780 128 q 737 57 687 23 q 637 -11 575 -11 q 538 -11 507 3 q 477 18 451 48 z"},"_":{"x_min":0,"x_max":500,"ha":500,"o":"m 0 -166 l 500 -166 l 500 -236 l 0 -236 z"},"v":{"x_min":0,"x_max":503,"ha":503,"o":"m 24 420 l 29 456 l 211 467 l 128 179 q 123 162 120 145 q 117 127 117 113 q 117 79 138 58 q 159 37 193 37 q 222 37 251 58 q 281 79 310 118 q 344 166 365 223 q 386 280 386 322 q 386 350 361 380 q 336 411 336 429 q 336 448 350 460 q 363 473 383 473 q 411 473 426 453 q 441 433 441 395 q 441 333 418 257 q 395 182 355 113 q 318 49 269 16 q 221 -17 164 -17 q 105 -17 70 20 q 34 57 34 118 q 34 134 37 151 q 40 167 46 191 l 86 337 q 93 362 96 373 q 98 384 98 390 q 98 407 84 414 q 71 420 24 420 z"},"O":{"x_min":0,"x_max":778,"ha":778,"o":"m 736 451 q 736 368 705 285 q 674 203 617 133 q 558 60 481 21 q 404 -18 321 -18 q 194 -18 118 61 q 43 140 43 274 q 43 359 73 439 q 103 520 160 590 q 220 664 297 703 q 375 742 459 742 q 582 742 659 661 q 736 580 736 451 z m 618 511 q 618 602 576 648 q 535 695 454 695 q 397 695 348 664 q 299 633 265 575 q 216 494 187 394 q 158 294 158 209 q 158 120 199 74 q 240 28 319 28 q 380 28 431 61 q 481 95 519 160 q 564 239 591 335 q 618 430 618 511 z"},"(":{"x_min":0,"x_max":331,"ha":331,"o":"m 178 -116 l 157 -132 q 99 -61 70 28 q 40 116 40 218 q 40 319 76 416 q 112 512 179 592 q 226 647 280 686 q 333 724 387 740 l 394 716 q 325 688 272 634 q 220 580 183 497 q 142 405 122 313 q 101 220 101 127 q 101 54 120 -6 q 139 -66 178 -116 z"},"C":{"x_min":0,"x_max":699,"ha":699,"o":"m 583 222 l 624 203 q 573 89 500 35 q 427 -18 322 -18 q 192 -18 117 62 q 42 142 42 280 q 42 368 71 448 q 100 529 155 597 q 213 667 284 705 q 355 742 432 742 q 488 742 532 721 q 576 700 610 656 l 672 722 l 704 722 l 650 436 l 610 436 l 610 457 q 610 573 564 635 q 519 698 434 698 q 387 698 345 674 q 303 649 270 603 q 218 531 189 433 q 159 335 159 237 q 159 139 206 84 q 253 29 337 29 q 416 29 478 77 q 540 125 583 222 z"},"W":{"x_min":0,"x_max":913,"ha":913,"o":"m 221 -18 l 134 617 q 129 652 115 665 q 100 678 66 678 l 53 678 l 53 722 l 315 722 l 315 678 l 282 676 q 258 674 249 668 q 240 661 240 645 q 240 639 241 630 q 242 622 243 611 l 297 197 l 475 586 q 475 589 476 595 q 476 602 476 604 q 476 646 460 662 q 443 678 398 678 l 388 678 l 388 722 l 659 722 l 659 678 l 618 675 q 591 673 583 667 q 575 661 575 646 q 575 641 577 624 q 579 615 579 611 l 635 197 l 812 582 q 822 604 827 618 q 831 632 831 641 q 831 661 812 669 q 794 677 736 678 l 741 722 l 997 722 l 993 678 q 946 673 917 649 q 888 625 862 567 l 595 -18 l 559 -18 l 486 491 l 257 -18 z"},"A":{"x_min":0,"x_max":700,"ha":700,"o":"m 381 577 l 217 289 l 436 289 z m 125 125 q 120 117 118 107 q 115 98 115 89 q 115 65 133 54 q 151 44 193 44 l 206 44 l 201 0 l -70 0 l -58 44 q -19 46 16 74 q 50 102 81 156 l 418 740 l 456 740 l 581 105 q 588 70 604 58 q 621 46 674 44 l 674 0 l 380 0 l 380 44 l 432 47 q 458 49 467 55 q 475 62 475 77 q 475 86 474 95 q 474 104 472 111 l 446 240 l 187 240 z"},"f":{"x_min":0,"x_max":331,"ha":331,"o":"m 122 412 l 31 412 l 44 456 l 135 456 q 167 599 224 669 q 280 740 362 740 q 407 740 435 717 q 463 694 463 658 q 463 631 448 615 q 433 598 409 598 q 389 598 375 612 q 361 626 361 645 q 361 656 369 670 q 377 683 377 687 q 377 694 370 699 q 363 703 350 703 q 309 703 282 658 q 255 614 216 456 l 339 456 l 330 412 l 205 412 l 120 64 q 98 -24 80 -82 q 62 -140 44 -188 l -65 -207 q -29 -134 -1 -57 q 26 20 46 100 z"},"Q":{"x_min":0,"x_max":778,"ha":778,"o":"m 390 -10 q 369 -15 351 -17 q 333 -19 320 -19 q 192 -19 117 60 q 43 139 43 275 q 43 359 73 439 q 103 520 160 590 q 220 664 297 703 q 375 742 459 742 q 582 742 659 661 q 736 580 736 450 q 736 323 671 208 q 606 94 498 32 q 504 -63 516 -91 q 527 -119 553 -119 q 569 -119 585 -103 q 602 -87 626 -46 l 658 -65 q 630 -126 589 -160 q 548 -194 501 -194 q 448 -194 417 -158 q 386 -123 386 -62 q 386 -52 387 -38 q 388 -25 390 -10 z m 186 92 q 186 94 186 99 q 184 115 184 120 q 184 186 225 227 q 266 268 332 268 q 396 268 437 227 q 478 187 487 114 q 509 136 529 173 q 549 210 568 264 q 592 332 605 396 q 618 459 618 511 q 618 602 576 648 q 535 695 455 695 q 383 695 329 650 q 275 604 229 504 q 195 430 176 351 q 157 272 157 208 q 157 171 164 143 q 171 115 186 92 z m 399 38 q 405 63 407 85 q 410 107 410 126 q 410 170 387 195 q 364 220 322 220 q 278 220 251 190 q 224 160 224 111 q 224 71 251 47 q 277 23 322 23 q 337 23 356 27 q 375 30 399 38 z"},"w":{"x_min":0,"x_max":766,"ha":766,"o":"m 100 337 q 105 354 109 368 q 112 382 112 389 q 112 407 99 414 q 85 420 38 420 l 43 456 l 218 467 l 130 179 q 122 153 117 130 q 113 107 113 91 q 113 68 126 54 q 139 40 161 40 q 229 40 294 154 q 360 267 398 456 l 488 456 q 441 301 423 224 q 405 146 405 106 q 405 74 418 57 q 431 40 456 40 q 481 40 509 58 q 537 77 562 111 q 599 160 621 219 q 643 278 643 322 q 643 350 618 381 q 593 412 593 426 q 593 446 607 459 q 622 473 643 473 q 669 473 683 453 q 697 432 697 395 q 697 343 681 281 q 666 219 637 160 q 597 76 545 31 q 494 -14 439 -14 q 384 -14 355 17 q 325 49 325 107 q 325 117 326 127 q 327 137 328 147 q 295 72 242 28 q 189 -16 134 -16 q 89 -16 61 14 q 32 43 32 90 q 32 108 38 134 q 43 160 53 191 z"},"-":{"x_min":0,"x_max":329,"ha":329,"o":"m 7 197 l 26 271 l 266 271 l 247 197 z"},"E":{"x_min":0,"x_max":715,"ha":715,"o":"m -18 44 l 36 49 q 55 51 65 59 q 76 67 80 84 l 213 607 q 217 621 219 632 q 221 643 221 648 q 221 664 210 670 q 198 676 153 677 l 113 678 l 121 722 l 699 722 l 659 478 l 618 478 q 618 485 617 497 q 613 604 594 632 q 576 657 541 667 q 506 677 428 677 q 371 677 353 669 q 334 661 325 624 l 268 402 q 283 401 290 400 q 297 400 303 400 q 371 400 410 431 q 450 461 469 529 l 514 529 l 422 188 l 378 188 q 382 208 384 227 q 386 245 386 262 q 386 318 364 338 q 341 358 280 358 l 257 358 l 197 116 q 193 101 191 92 q 189 83 189 77 q 189 59 207 52 q 225 45 287 45 q 410 45 480 92 q 550 140 605 258 l 644 258 l 566 0 l -27 0 z"},"s":{"x_min":0,"x_max":440,"ha":440,"o":"m 157 -17 q 86 -17 42 16 q -3 49 -3 101 q -3 131 13 150 q 29 169 55 169 q 76 169 89 155 q 103 141 103 119 q 103 90 75 70 q 69 65 69 64 q 69 46 93 34 q 116 21 153 21 q 209 21 243 47 q 276 74 276 118 q 276 161 200 190 q 194 193 191 194 q 112 224 86 252 q 60 281 60 326 q 60 390 109 431 q 157 472 234 472 q 302 472 344 444 q 385 416 385 371 q 385 344 370 328 q 355 312 331 312 q 310 312 295 325 q 280 338 280 358 q 280 375 292 391 q 305 407 305 411 q 305 421 286 429 q 267 437 238 437 q 189 437 159 414 q 129 392 129 357 q 129 308 223 273 q 243 266 254 262 q 305 243 327 215 q 349 187 349 143 q 349 71 296 27 q 244 -17 157 -17 z"},">":{"x_min":0,"x_max":833,"ha":833,"o":"m 129 566 l 704 330 l 704 267 l 129 31 l 129 106 l 603 298 l 129 491 z"},"l":{"x_min":0,"x_max":331,"ha":331,"o":"m 103 96 q 100 86 99 77 q 97 67 97 61 q 97 48 102 42 q 106 37 118 37 q 137 37 165 65 q 194 93 240 158 l 269 139 q 220 62 177 26 q 135 -10 93 -10 q 60 -10 39 11 q 17 32 17 65 q 17 79 21 99 q 25 119 34 146 l 172 604 q 178 623 181 636 q 184 648 184 656 q 184 675 170 681 q 156 688 97 688 l 106 723 l 292 734 z"},"8":{"x_min":0,"x_max":546,"ha":546,"o":"m 330 396 q 386 412 420 457 q 453 501 453 561 q 453 611 422 639 q 391 666 334 666 q 276 666 235 629 q 193 591 193 540 q 193 497 226 463 q 258 429 330 396 z m 375 375 q 429 341 455 301 q 481 260 481 209 q 481 111 406 46 q 332 -19 217 -19 q 124 -19 66 26 q 9 72 9 143 q 9 212 56 265 q 103 319 193 352 q 153 382 135 417 q 117 452 117 499 q 117 584 182 645 q 246 706 339 706 q 423 706 475 662 q 526 619 526 547 q 526 490 490 449 q 455 408 375 375 z m 228 328 q 159 298 124 252 q 89 207 89 147 q 89 92 126 58 q 163 25 223 25 q 300 25 347 63 q 394 102 394 165 q 394 214 360 249 q 326 284 228 328 z"},"\\":{"x_min":0,"x_max":278,"ha":278,"o":"m 168 -93 l 65 740 l 109 740 l 211 -93 z"},"e":{"x_min":0,"x_max":435,"ha":435,"o":"m 364 91 q 327 38 276 10 q 225 -18 166 -18 q 91 -18 44 32 q -2 83 -2 165 q -2 215 17 264 q 36 314 72 359 q 115 412 167 441 q 220 470 273 470 q 331 470 364 443 q 397 416 397 369 q 397 305 321 256 q 244 207 91 174 q 91 168 89 155 q 88 141 88 135 q 88 85 112 58 q 136 31 179 31 q 221 31 261 52 q 302 73 340 114 z m 95 211 q 203 235 257 276 q 311 316 311 374 q 311 400 296 416 q 281 432 257 432 q 203 432 161 374 q 118 316 95 211 z"},"b":{"x_min":0,"x_max":508,"ha":508,"o":"m 92 123 q 92 73 113 48 q 135 24 179 24 q 215 24 246 46 q 277 69 304 114 q 331 161 347 216 q 364 272 364 315 q 364 363 341 389 q 318 415 276 415 q 244 415 216 397 q 188 378 162 342 q 130 295 111 236 q 92 176 92 123 z m 161 397 q 194 432 230 450 q 267 468 305 468 q 375 468 416 425 q 456 382 456 308 q 456 245 433 184 q 409 124 368 80 q 323 33 272 8 q 222 -17 171 -17 q 96 -17 52 24 q 8 65 8 134 q 8 172 35 259 q 38 269 39 274 l 143 610 q 149 630 152 643 q 155 655 155 662 q 155 680 142 686 q 128 693 86 693 l 66 693 l 76 729 l 268 740 z"},"%":{"x_min":0,"x_max":823,"ha":823,"o":"m 180 -17 l 544 628 q 517 612 490 604 q 462 596 436 596 q 417 596 403 598 q 389 600 379 604 q 381 597 382 588 q 383 580 383 570 q 383 526 365 478 q 347 429 315 389 q 283 348 246 327 q 208 306 167 306 q 109 306 75 343 q 40 379 40 439 q 40 480 58 523 q 75 565 109 605 q 146 648 184 670 q 223 693 259 693 q 296 693 322 682 q 347 670 363 646 q 376 635 395 629 q 414 623 437 623 q 481 623 526 646 q 572 669 596 705 l 640 705 l 229 -17 z m 750 250 q 750 290 730 314 q 711 338 680 338 q 655 338 633 320 q 610 301 581 256 q 546 202 527 155 q 508 109 508 80 q 508 51 527 33 q 547 15 579 15 q 609 15 638 34 q 667 53 693 91 q 721 130 735 171 q 750 212 750 250 z m 653 369 q 713 369 746 338 q 778 306 778 248 q 778 204 760 156 q 742 108 708 65 q 676 24 639 4 q 602 -17 560 -17 q 503 -17 469 19 q 434 56 434 115 q 434 156 452 199 q 469 241 503 281 q 539 324 578 346 q 617 369 653 369 z m 349 616 q 328 621 312 632 q 295 644 284 660 q 261 659 238 641 q 216 622 187 578 q 152 524 133 479 q 114 433 114 402 q 114 373 133 355 q 152 337 183 337 q 214 337 243 356 q 273 375 299 413 q 327 453 342 496 q 357 538 357 576 q 357 584 355 595 q 353 606 349 616 z"},"m":{"x_min":0,"x_max":880,"ha":880,"o":"m 9 0 l 115 337 q 120 354 123 368 q 126 382 126 389 q 126 407 113 414 q 100 420 40 420 l 49 456 l 221 467 l 195 337 q 240 401 286 434 q 333 468 376 468 q 421 468 446 439 q 471 410 471 358 l 471 344 q 518 404 564 436 q 611 468 654 468 q 696 468 723 443 q 750 418 750 380 q 750 366 745 344 q 741 322 733 299 l 666 94 q 663 84 660 74 q 658 64 658 59 q 658 48 664 43 q 669 37 680 37 q 700 37 729 67 q 758 96 801 159 l 830 140 q 779 61 738 25 q 697 -10 656 -10 q 622 -10 599 11 q 577 33 577 65 q 577 77 581 94 q 585 111 596 145 l 655 319 q 661 335 664 350 q 667 365 667 376 q 667 396 656 406 q 644 416 622 416 q 596 416 563 393 q 531 370 498 328 q 467 289 445 240 q 423 192 395 89 l 371 0 l 286 0 q 293 22 323 122 l 326 131 l 382 318 q 386 331 388 343 q 390 356 390 369 q 390 393 379 405 q 367 416 344 416 q 320 416 288 393 q 256 369 222 326 q 193 290 170 234 q 146 178 123 89 l 99 0 z"},"#":{"x_min":0,"x_max":769,"ha":769,"o":"m 343 422 l 295 287 l 433 287 l 480 422 z m 371 712 l 447 712 l 368 490 l 503 490 l 582 712 l 658 712 l 579 490 l 726 490 l 702 422 l 555 422 l 508 287 l 664 287 l 640 219 l 484 219 l 405 -2 l 329 -2 l 408 219 l 272 219 l 193 -2 l 118 -2 l 196 219 l 43 219 l 68 287 l 220 287 l 268 422 l 104 422 l 129 490 l 292 490 z"},",":{"x_min":0,"x_max":273,"ha":273,"o":"m -20 -133 q 40 -107 72 -75 q 104 -44 105 -9 l 102 -9 q 68 -9 51 6 q 33 20 33 48 q 33 74 51 91 q 68 109 94 109 q 124 109 145 85 q 165 62 165 26 q 165 -36 120 -86 q 76 -136 -5 -165 z"},"n":{"x_min":0,"x_max":606,"ha":606,"o":"m 9 0 l 115 337 q 120 354 123 368 q 126 382 126 389 q 126 407 113 414 q 100 420 40 420 l 49 456 l 225 467 l 195 337 q 241 400 289 434 q 338 468 382 468 q 424 468 451 443 q 478 418 478 380 q 478 366 473 344 q 469 322 461 299 l 393 94 q 390 84 388 75 q 386 66 386 59 q 386 48 391 42 q 396 37 407 37 q 426 37 456 66 q 485 96 529 159 l 557 140 q 513 66 469 28 q 425 -10 384 -10 q 350 -10 327 11 q 305 31 305 63 q 305 78 310 97 q 314 117 324 145 l 383 319 q 389 335 392 350 q 395 365 395 376 q 395 396 383 406 q 372 416 349 416 q 323 416 291 393 q 259 370 226 328 q 195 289 173 240 q 151 192 123 89 l 99 0 z"},"h":{"x_min":0,"x_max":606,"ha":606,"o":"m 98 0 l 7 0 l 181 613 l 183 618 q 193 656 193 666 q 193 684 179 690 q 165 696 106 696 l 116 732 l 305 743 l 193 337 q 239 400 287 434 q 336 468 380 468 q 422 468 449 443 q 476 418 476 380 q 476 368 472 347 q 467 325 459 299 l 393 94 q 390 84 388 75 q 386 65 386 59 q 386 48 391 42 q 396 37 407 37 q 427 37 458 68 q 490 100 529 159 l 557 140 q 512 65 469 28 q 425 -10 384 -10 q 350 -10 327 11 q 305 33 305 65 q 305 77 309 92 q 312 107 324 145 l 381 319 q 387 338 390 352 q 393 366 393 376 q 393 396 381 406 q 370 416 347 416 q 321 416 289 393 q 257 370 224 328 q 191 287 167 232 q 144 178 121 89 z"},"z":{"x_min":0,"x_max":437,"ha":437,"o":"m 23 46 l 23 39 q 23 9 16 -4 q 9 -17 -6 -17 q -15 -17 -21 -9 q -28 -1 -28 11 q -28 41 1 84 q 30 126 89 183 q 138 230 231 288 q 324 347 352 377 q 337 371 319 367 q 300 364 278 364 q 250 364 203 380 q 157 396 140 396 q 120 396 102 379 q 84 362 57 315 l 29 333 q 62 399 102 434 q 143 468 187 468 q 222 468 271 444 q 321 420 345 420 q 357 420 362 425 q 367 430 371 446 q 375 461 379 467 q 384 472 393 472 q 403 472 408 465 q 413 458 413 444 q 413 409 370 351 q 328 292 263 244 q 243 229 162 181 q 82 133 45 88 q 55 93 71 95 q 87 98 109 98 q 149 98 201 80 q 252 61 269 61 q 294 61 316 84 q 337 106 358 154 l 390 141 q 364 65 321 24 q 279 -16 225 -16 q 205 -16 183 -10 q 161 -4 117 15 q 105 21 84 31 q 47 49 38 49 q 34 49 30 48 q 26 47 23 46 z"},"B":{"x_min":0,"x_max":715,"ha":715,"o":"m 350 348 l 253 348 l 196 115 q 191 96 190 86 q 188 77 188 73 q 188 56 204 50 q 221 44 277 44 q 352 44 391 53 q 430 62 456 84 q 485 107 502 146 q 520 185 520 228 q 520 292 481 320 q 443 348 350 348 z m 323 635 l 263 391 l 330 391 q 448 391 501 433 q 553 476 553 569 q 553 630 520 654 q 487 678 397 678 q 360 678 344 669 q 329 659 323 635 z m 400 722 q 481 722 518 717 q 554 711 580 699 q 624 678 646 643 q 669 607 669 561 q 669 479 616 429 q 562 379 468 372 q 551 356 593 316 q 634 275 634 208 q 634 118 564 59 q 495 0 386 0 l -30 0 l -22 44 l 37 48 q 57 49 67 58 q 77 67 84 97 l 212 606 q 216 621 218 632 q 220 644 220 649 q 220 665 208 670 q 195 676 153 677 l 117 678 l 125 722 z"},"K":{"x_min":0,"x_max":757,"ha":757,"o":"m -28 0 l -20 44 l 34 48 q 53 50 63 58 q 74 66 78 83 l 216 631 q 216 632 218 639 q 219 645 219 649 q 219 665 208 670 q 197 676 152 677 l 117 678 l 126 722 l 442 722 l 433 678 l 372 673 q 353 671 343 663 q 333 655 328 638 l 252 339 l 575 610 q 587 620 595 631 q 602 643 602 651 q 602 667 585 672 q 567 678 516 678 l 523 722 l 811 722 l 806 681 q 766 678 731 662 q 697 646 647 605 l 428 423 l 590 84 q 599 64 613 56 q 626 48 656 46 l 693 44 l 690 0 l 373 0 l 382 44 l 430 46 q 458 47 468 52 q 478 57 478 68 q 478 73 476 79 q 475 84 469 97 l 346 353 l 231 258 l 195 115 q 191 101 189 90 q 187 79 187 73 q 187 58 198 52 q 210 46 254 45 l 285 44 l 276 0 z"},"R":{"x_min":0,"x_max":755,"ha":755,"o":"m 323 625 l 267 399 l 333 399 q 464 399 523 441 q 581 483 581 576 q 581 633 544 656 q 508 678 405 678 q 361 678 346 668 q 331 657 323 625 z m 424 722 q 562 722 629 683 q 695 644 695 563 q 695 478 628 427 q 562 377 438 368 q 499 348 524 312 q 549 277 549 212 q 549 199 547 166 q 546 133 546 113 q 546 79 554 63 q 562 48 579 48 q 594 48 610 72 q 627 95 647 144 l 681 129 q 657 59 620 21 q 583 -16 538 -16 q 487 -16 459 16 q 431 48 431 107 q 431 144 438 198 q 444 253 444 271 q 444 318 418 335 q 393 353 307 353 l 256 353 l 196 115 q 191 96 190 86 q 188 77 188 73 q 188 58 200 52 q 212 46 254 45 l 287 44 l 280 0 l -30 0 l -22 44 l 37 48 q 57 50 67 58 q 76 66 84 97 l 212 606 q 216 621 218 632 q 220 644 220 649 q 220 665 208 670 q 195 676 153 677 l 117 678 l 125 722 z"},"T":{"x_min":0,"x_max":706,"ha":706,"o":"m 88 0 l 98 44 l 169 48 q 204 50 216 97 l 216 97 l 347 611 q 352 628 353 637 q 355 646 355 651 q 355 666 345 673 q 335 679 312 679 q 243 679 195 633 q 147 587 84 453 l 48 466 l 134 722 l 723 722 l 683 446 l 642 446 q 644 473 644 493 q 645 513 645 525 q 645 606 615 642 q 584 678 517 678 q 492 678 480 670 q 469 661 461 629 l 329 115 q 326 103 324 92 q 322 82 322 73 q 322 58 334 52 q 347 46 389 45 l 431 44 l 428 0 z"},"P":{"x_min":0,"x_max":669,"ha":669,"o":"m 258 364 l 328 364 q 449 364 503 411 q 557 458 557 563 q 557 627 523 653 q 490 678 400 678 q 361 678 346 666 q 332 654 323 618 z m 196 115 q 192 101 190 90 q 188 78 188 73 q 188 58 200 52 q 212 46 254 45 l 300 44 l 292 0 l -30 0 l -22 44 l 37 48 q 57 50 67 58 q 76 66 84 97 l 212 606 q 216 621 218 632 q 220 644 220 649 q 220 665 208 670 q 195 676 153 677 l 117 678 l 125 722 l 355 722 q 453 722 491 717 q 530 712 557 701 q 612 678 640 638 q 669 597 669 541 q 669 492 649 450 q 629 408 591 379 q 550 347 498 333 q 447 319 337 319 l 308 319 l 247 319 z"},"|":{"x_min":0,"x_max":500,"ha":500,"o":"m 214 764 l 287 764 l 287 -236 l 214 -236 z"},"t":{"x_min":0,"x_max":329,"ha":329,"o":"m 101 94 q 98 82 96 73 q 94 63 94 59 q 94 48 100 43 q 105 37 116 37 q 136 37 165 66 q 195 96 241 162 l 270 144 q 226 69 180 30 q 134 -10 92 -10 q 55 -10 34 10 q 13 30 13 65 q 13 78 16 94 q 20 109 31 145 l 117 414 l 25 414 l 37 456 l 131 456 l 187 626 l 266 626 l 212 456 l 322 456 l 309 414 l 199 414 z"},"M":{"x_min":0,"x_max":928,"ha":928,"o":"m 736 634 l 363 0 l 333 0 l 253 614 l 143 175 l 142 171 q 133 133 133 117 q 133 81 157 64 q 181 46 234 44 l 229 0 l -45 0 l -37 44 q 19 51 46 75 q 72 100 87 160 l 209 641 q 203 658 189 666 q 176 674 151 676 l 92 680 l 98 722 l 343 722 l 412 183 l 728 722 l 948 722 l 940 678 l 888 673 q 868 671 858 663 q 849 654 841 624 l 716 115 q 712 101 710 90 q 708 78 708 73 q 708 58 720 52 q 732 46 774 45 l 811 44 l 802 0 l 489 0 l 498 44 l 557 48 q 577 50 586 58 q 595 66 603 97 z"},"g":{"x_min":0,"x_max":552,"ha":552,"o":"m 139 197 q 108 215 94 239 q 79 263 79 296 q 79 369 137 421 q 194 472 278 472 q 297 472 318 467 q 340 462 368 452 q 392 477 420 490 q 448 503 477 503 q 508 503 524 490 q 541 477 541 452 q 541 434 530 422 q 519 410 502 410 q 482 410 469 432 q 456 454 440 454 q 429 454 419 449 q 409 443 401 433 q 431 410 445 383 q 460 357 460 328 q 460 253 402 203 q 345 154 256 154 q 235 154 200 158 q 165 162 150 162 q 120 162 104 151 q 88 141 88 121 q 88 86 181 80 q 192 80 198 79 q 327 70 371 43 q 415 16 415 -46 q 415 -124 344 -167 q 274 -210 145 -210 q 45 -210 -8 -179 q -61 -148 -61 -91 q -61 -47 -27 -20 q 7 8 74 18 q 42 26 26 45 q 10 63 10 93 q 10 133 45 161 q 80 190 139 197 z m 122 2 q 72 -7 46 -31 q 19 -55 19 -89 q 19 -128 55 -149 q 91 -170 159 -170 q 245 -170 293 -145 q 342 -120 342 -75 q 342 -36 291 -18 q 239 0 122 2 z m 164 275 q 164 234 188 211 q 211 189 254 189 q 306 189 340 235 q 373 281 373 353 q 373 391 349 413 q 326 434 283 434 q 229 434 197 390 q 164 346 164 275 z"},"j":{"x_min":0,"x_max":331,"ha":331,"o":"m 185 670 q 185 691 200 707 q 216 722 238 722 q 260 722 276 707 q 291 692 291 670 q 291 648 275 633 q 260 617 238 617 q 217 617 201 633 q 185 648 185 670 z m 140 337 l 140 338 q 152 378 152 389 q 152 407 139 414 q 126 420 65 420 l 75 456 l 261 467 l 146 59 q 104 -86 51 -147 q -2 -209 -85 -209 q -131 -209 -160 -186 q -189 -164 -189 -127 q -189 -99 -174 -83 q -160 -67 -134 -67 q -112 -67 -99 -81 q -86 -94 -86 -116 q -86 -127 -93 -139 q -100 -152 -100 -156 q -100 -164 -94 -168 q -87 -172 -76 -172 q -9 -172 49 26 l 54 42 z"},"i":{"x_min":0,"x_max":337,"ha":337,"o":"m 282 139 q 232 61 191 25 q 149 -10 108 -10 q 74 -10 51 11 q 28 32 28 63 q 28 75 31 91 q 35 107 47 145 l 109 337 q 115 354 118 368 q 121 382 121 389 q 121 407 108 414 q 95 420 34 420 l 44 456 l 236 467 l 117 94 q 114 84 112 75 q 110 65 110 59 q 110 48 115 42 q 121 36 131 36 q 149 36 181 68 q 212 99 253 159 z m 167 670 q 167 692 182 707 q 197 722 219 722 q 241 722 257 707 q 272 692 272 670 q 272 648 256 633 q 241 617 219 617 q 198 617 182 633 q 167 648 167 670 z"},"y":{"x_min":0,"x_max":477,"ha":477,"o":"m 188 -3 q 165 174 137 284 q 108 393 87 393 q 75 393 60 372 q 45 351 21 297 l -11 310 q 21 388 55 429 q 88 469 120 469 q 178 469 245 164 q 252 130 256 112 l 263 125 q 357 289 357 349 q 357 367 355 388 q 354 410 354 414 q 354 438 367 453 q 380 468 402 468 q 422 468 434 454 q 446 441 446 419 q 446 373 333 167 l 331 165 l 326 156 q 122 -211 0 -211 q -42 -211 -67 -190 q -93 -169 -93 -136 q -93 -110 -79 -95 q -65 -79 -43 -79 q -20 -79 -6 -93 q 8 -107 8 -130 q 8 -136 7 -144 q 6 -151 6 -153 q 6 -160 11 -164 q 16 -168 24 -168 q 56 -168 102 -122 q 149 -76 188 -3 z"},"@":{"x_min":0,"x_max":986,"ha":986,"o":"m 579 162 q 549 111 512 86 q 475 61 429 61 q 366 61 329 106 q 291 151 291 226 q 291 279 315 332 q 339 384 384 427 q 417 458 455 475 q 493 492 531 492 q 575 492 602 469 q 629 445 639 399 l 664 484 l 741 484 l 657 185 q 657 184 655 179 q 648 152 648 137 q 648 112 659 99 q 671 85 692 85 q 708 85 731 95 q 754 104 775 120 q 833 164 863 232 q 892 299 892 387 q 892 452 866 507 q 841 562 790 605 q 746 643 686 663 q 625 683 555 683 q 467 683 391 653 q 315 623 257 565 q 195 504 164 425 q 133 345 133 250 q 133 161 161 97 q 188 33 248 -17 q 301 -62 372 -86 q 443 -110 522 -110 q 605 -110 682 -85 q 758 -60 828 -9 l 844 -29 q 772 -83 692 -110 q 611 -137 523 -137 q 431 -137 354 -115 q 278 -93 220 -49 q 146 6 108 86 q 69 166 69 262 q 69 361 111 448 q 153 535 234 601 q 299 655 378 683 q 456 710 545 710 q 714 710 816 618 q 918 526 918 374 q 918 296 889 229 q 861 161 808 113 q 779 87 747 74 q 714 60 681 60 q 634 60 608 86 q 583 112 579 162 z m 539 469 q 513 469 491 454 q 469 439 447 406 q 412 354 392 292 q 371 230 371 180 q 371 138 390 113 q 410 87 440 87 q 472 87 500 108 q 528 129 554 173 q 581 218 597 272 q 614 327 614 369 q 614 414 593 442 q 573 469 539 469 z"},".":{"x_min":0,"x_max":273,"ha":273,"o":"m 90 107 q 116 107 134 89 q 152 70 152 45 q 152 20 134 2 q 116 -16 90 -16 q 65 -16 47 2 q 29 20 29 45 q 29 71 47 89 q 64 107 90 107 z"},"p":{"x_min":0,"x_max":549,"ha":549,"o":"m 55 -111 q 52 -122 50 -131 q 49 -140 49 -147 q 49 -161 60 -166 q 71 -171 101 -171 l 122 -171 l 116 -208 l -122 -208 l -112 -171 l -69 -168 q -55 -167 -48 -159 q -41 -152 -33 -126 l 106 358 q 109 369 110 378 q 112 387 112 392 q 112 409 98 415 q 85 421 23 421 l 33 457 l 205 468 l 186 377 q 225 423 264 446 q 304 469 346 469 q 410 469 448 426 q 487 382 487 308 q 487 246 466 186 q 445 127 408 82 q 370 35 323 10 q 277 -16 230 -16 q 188 -16 156 3 q 124 22 104 59 z m 133 124 q 133 79 156 54 q 178 29 218 29 q 255 29 285 51 q 315 73 341 119 q 366 164 382 218 q 397 272 397 315 q 397 362 375 388 q 352 414 311 414 q 279 414 251 396 q 223 377 199 340 q 171 297 152 235 q 133 173 133 124 z"},"X":{"x_min":0,"x_max":700,"ha":700,"o":"m 397 442 l 547 597 q 559 609 564 619 q 569 630 569 642 q 569 661 551 669 q 532 678 491 678 l 501 722 l 766 722 l 756 678 q 722 674 690 657 q 659 639 626 606 l 418 394 l 543 106 q 557 74 572 62 q 587 50 624 47 l 660 44 l 660 0 l 341 0 l 341 44 l 389 46 q 422 47 431 52 q 440 57 440 68 q 440 78 433 94 q 432 96 432 96 l 339 314 l 194 164 q 165 134 155 118 q 145 102 145 87 q 145 65 164 54 q 184 44 223 44 l 228 44 l 228 0 l -60 0 l -53 44 q -15 49 21 72 q 58 95 115 153 l 319 362 l 204 628 q 193 654 183 662 q 172 670 138 674 l 108 678 l 108 722 l 397 722 l 397 678 l 363 677 q 331 676 322 670 q 312 665 312 651 q 312 646 314 638 q 317 630 323 616 z"},"*":{"x_min":0,"x_max":500,"ha":500,"o":"m 290 523 l 290 518 q 290 480 311 435 q 331 389 331 376 q 331 355 318 343 q 305 330 283 330 q 261 330 248 342 q 235 354 235 376 q 235 388 255 433 q 275 477 275 515 l 275 524 q 255 513 240 499 q 224 484 209 463 q 208 461 205 457 q 169 407 141 407 q 125 407 111 424 q 96 441 96 460 q 96 482 114 494 q 132 506 172 509 q 210 512 231 519 q 251 525 267 537 q 229 561 166 565 q 157 565 152 566 q 126 568 111 581 q 96 594 96 613 q 96 633 110 650 q 125 666 142 666 q 170 666 203 620 q 207 613 209 610 q 224 588 240 574 q 256 560 276 549 l 276 554 q 276 592 256 639 q 236 685 236 697 q 236 717 249 730 q 262 742 284 742 q 306 742 319 730 q 331 718 331 697 q 331 684 311 639 q 291 594 291 555 l 291 548 q 310 558 325 572 q 340 585 357 609 q 360 613 365 620 q 397 665 425 665 q 441 665 456 648 q 470 631 470 612 q 470 594 455 581 q 439 568 417 566 q 414 566 406 565 q 336 561 300 535 q 337 512 399 507 q 408 506 412 506 q 439 504 455 491 q 470 479 470 459 q 470 439 456 423 q 442 407 425 407 q 395 407 362 458 q 359 461 358 463 q 343 484 327 498 q 311 513 290 523 z"},"Y":{"x_min":0,"x_max":669,"ha":669,"o":"m 366 363 l 555 595 q 564 606 568 616 q 572 626 572 636 q 572 658 552 667 q 532 676 478 678 l 483 722 l 762 722 l 752 678 q 716 677 689 664 q 661 650 638 622 l 382 309 l 334 116 q 331 102 329 91 q 327 80 327 75 q 327 59 339 52 q 351 46 393 45 l 443 44 l 435 0 l 92 0 l 102 44 l 175 49 q 195 50 204 59 q 214 67 222 98 l 276 313 l 147 628 q 136 655 117 666 q 99 677 56 679 l 56 722 l 346 722 l 346 679 l 291 678 q 269 678 260 673 q 251 668 251 656 q 251 652 252 647 q 254 641 258 631 z"},"c":{"x_min":0,"x_max":435,"ha":435,"o":"m 366 111 q 321 46 271 14 q 222 -18 166 -18 q 90 -18 44 34 q -3 87 -3 173 q -3 225 15 273 q 33 322 69 367 q 109 417 160 445 q 211 473 264 473 q 321 473 359 442 q 396 412 396 365 q 396 332 378 312 q 360 291 331 291 q 308 291 294 304 q 280 318 280 341 q 280 354 286 366 q 292 377 303 384 q 306 386 313 389 q 331 396 331 406 q 331 418 312 428 q 293 437 267 437 q 231 437 201 418 q 172 398 150 361 q 122 312 107 260 q 92 208 92 157 q 92 97 117 64 q 143 31 189 31 q 228 31 262 54 q 296 78 337 134 z"},"!":{"x_min":0,"x_max":332,"ha":332,"o":"m 88 107 q 113 107 132 89 q 150 70 150 45 q 150 20 132 2 q 114 -16 88 -16 q 63 -16 45 2 q 27 20 27 45 q 27 71 45 89 q 62 107 88 107 z m 108 193 q 165 396 184 609 q 187 638 188 647 q 195 693 213 718 q 232 742 261 742 q 288 742 302 726 q 317 709 317 680 q 317 650 277 564 q 255 516 243 488 q 221 436 197 362 q 172 289 142 186 z"},"/":{"x_min":0,"x_max":278,"ha":278,"o":"m 242 740 l 287 740 l 36 -93 l -10 -93 z"},"[":{"x_min":0,"x_max":331,"ha":331,"o":"m 168 -108 l -59 -108 l 157 722 l 368 722 l 363 691 l 217 691 l 17 -76 l 172 -76 z"},"6":{"x_min":0,"x_max":546,"ha":546,"o":"m 156 352 q 194 392 235 412 q 277 432 319 432 q 392 432 439 383 q 486 334 486 258 q 486 210 469 163 q 452 115 420 77 q 382 31 333 5 q 283 -20 230 -20 q 139 -20 85 45 q 31 111 31 222 q 31 306 57 390 q 83 475 129 542 q 184 622 250 663 q 315 705 387 705 q 453 705 495 671 q 538 637 538 587 q 538 554 520 535 q 501 516 469 516 q 446 516 430 531 q 414 546 414 569 q 414 586 427 608 q 439 629 439 637 q 439 650 424 658 q 408 666 383 666 q 307 666 251 589 q 195 511 156 352 z m 282 374 q 217 374 170 310 q 123 247 123 154 q 123 94 151 58 q 180 23 228 23 q 295 23 340 90 q 385 156 385 257 q 385 313 358 344 q 331 374 282 374 z"},"r":{"x_min":0,"x_max":441,"ha":441,"o":"m 10 0 l 113 337 q 119 356 122 369 q 125 382 125 389 q 125 407 112 414 q 99 420 38 420 l 47 456 l 220 467 l 197 346 q 238 407 278 437 q 317 467 358 467 q 395 467 416 447 q 437 427 437 393 q 437 366 422 348 q 406 331 382 331 q 366 331 353 340 q 340 349 333 365 q 330 374 329 389 q 327 410 310 410 q 266 410 211 312 q 156 213 115 53 l 101 0 z"},"2":{"x_min":0,"x_max":546,"ha":546,"o":"m 435 212 l 474 197 l 394 0 l -37 0 l -29 35 q 22 107 154 218 q 181 241 194 252 q 316 355 360 421 q 405 486 405 550 q 405 599 372 628 q 338 657 283 657 q 230 657 185 624 q 140 590 140 556 q 140 543 167 535 q 181 531 188 527 q 203 520 211 507 q 219 494 219 476 q 219 449 202 432 q 184 415 155 415 q 119 415 97 440 q 75 466 75 508 q 75 587 145 646 q 215 705 313 705 q 401 705 455 658 q 509 611 509 534 q 509 466 466 407 q 423 349 314 273 q 297 261 263 238 q 125 143 71 87 l 303 87 q 374 87 431 204 z"},"{":{"x_min":0,"x_max":500,"ha":500,"o":"m 414 740 l 414 714 q 348 713 323 688 q 299 662 299 585 l 299 516 q 299 405 270 365 q 241 326 164 310 q 242 294 270 255 q 299 215 299 104 l 299 35 q 299 -42 323 -67 q 347 -92 414 -93 l 414 -119 l 409 -119 q 302 -119 262 -83 q 222 -47 222 50 l 222 151 q 222 229 193 259 q 165 289 87 295 l 87 326 q 166 333 194 362 q 222 392 222 470 l 222 571 q 222 668 262 704 q 302 740 409 740 z"},"9":{"x_min":0,"x_max":546,"ha":546,"o":"m 397 335 q 359 295 318 275 q 276 255 234 255 q 161 255 114 304 q 67 353 67 429 q 67 478 84 525 q 101 572 132 610 q 169 656 220 682 q 270 707 323 707 q 414 707 468 642 q 522 576 522 465 q 522 381 496 297 q 470 212 424 145 q 369 65 303 24 q 237 -18 166 -18 q 101 -18 58 16 q 15 50 15 100 q 15 133 33 152 q 52 171 84 171 q 107 171 123 156 q 138 142 138 119 q 138 102 125 80 q 113 58 113 50 q 113 38 128 30 q 144 22 170 22 q 246 22 302 99 q 358 176 397 335 z m 271 313 q 336 313 383 376 q 429 439 429 532 q 429 594 401 629 q 374 664 325 664 q 258 664 213 597 q 168 531 168 430 q 168 374 195 344 q 222 313 271 313 z"}," ":{"x_min":0,"x_max":273,"ha":273,"o":""},"I":{"x_min":0,"x_max":409,"ha":409,"o":"m 196 116 q 192 103 190 91 q 188 79 188 73 q 188 58 200 52 q 211 46 256 45 l 287 44 l 278 0 l -27 0 l -18 44 l 36 49 q 56 51 66 59 q 76 67 80 84 l 213 607 q 217 622 219 632 q 221 642 221 649 q 221 665 209 670 q 198 676 153 677 l 119 678 l 128 722 l 430 722 l 420 678 l 373 674 q 353 672 343 665 q 333 657 329 639 z"},"H":{"x_min":0,"x_max":833,"ha":833,"o":"m 573 351 l 255 351 l 196 116 q 192 102 190 90 q 188 78 188 73 q 188 58 200 52 q 212 46 254 45 l 291 44 l 282 0 l -30 0 l -22 44 l 37 49 q 55 50 65 58 q 75 66 80 84 l 212 607 q 216 622 218 633 q 220 644 220 649 q 220 665 208 670 q 195 676 153 677 l 117 678 l 125 722 l 439 722 l 429 678 l 371 674 q 352 672 343 665 q 333 657 328 639 l 267 400 l 585 400 l 637 607 q 640 620 642 631 q 644 643 644 649 q 644 665 632 670 q 620 676 578 677 l 541 678 l 550 722 l 863 722 l 854 678 l 796 674 q 777 672 767 664 q 756 656 752 639 l 621 116 q 618 103 616 92 q 614 81 614 73 q 614 58 626 52 q 638 46 680 45 l 717 44 l 708 0 l 395 0 l 404 44 l 462 49 q 480 50 491 59 q 501 67 506 84 z"},"4":{"x_min":0,"x_max":546,"ha":546,"o":"m 127 0 l 139 44 l 207 49 q 226 50 235 59 q 245 67 253 98 l 278 189 l -6 189 l -6 230 l 461 712 l 511 712 l 383 242 l 502 242 l 487 189 l 368 189 l 348 116 q 345 104 343 94 q 341 84 341 77 q 341 60 354 53 q 368 46 408 45 l 447 44 l 435 0 z m 292 241 l 381 568 l 65 241 z"},"~":{"x_min":0,"x_max":833,"ha":833,"o":"m 747 376 l 747 300 q 696 265 650 248 q 604 231 557 231 q 512 231 432 259 q 421 263 416 265 l 408 268 q 322 297 275 297 q 234 297 189 279 q 145 261 87 220 l 87 296 q 139 331 186 349 q 232 366 276 366 q 306 366 338 360 q 370 353 418 336 q 426 333 441 328 q 519 300 558 300 q 601 300 646 318 q 690 336 747 376 z"},"D":{"x_min":0,"x_max":773,"ha":773,"o":"m 326 632 l 197 117 q 192 100 191 91 q 189 82 189 77 q 189 58 203 51 q 217 44 266 44 q 349 44 401 64 q 454 83 492 128 q 517 156 541 204 q 565 253 584 312 q 599 360 606 404 q 613 449 613 491 q 613 593 566 637 q 520 681 410 681 q 366 681 349 671 q 333 661 326 632 z m -30 0 l -22 44 l 37 48 q 55 49 65 57 q 75 65 80 83 l 212 606 q 216 621 218 632 q 220 644 220 649 q 220 665 208 670 q 195 676 153 677 l 117 678 l 125 722 l 442 722 q 580 722 656 648 q 731 575 731 439 q 731 325 682 227 q 633 129 547 71 q 493 35 434 17 q 375 0 303 0 z"},"^":{"x_min":0,"x_max":1000,"ha":1000,"o":"m 452 714 l 547 714 l 797 438 l 749 438 l 499 643 l 248 438 l 201 438 z"},"0":{"x_min":0,"x_max":546,"ha":546,"o":"m 520 460 q 520 360 491 269 q 463 178 409 105 q 363 43 313 12 q 262 -19 209 -19 q 124 -19 73 49 q 23 117 23 232 q 23 323 54 420 q 86 517 138 587 q 181 645 232 675 q 284 705 339 705 q 425 705 473 641 q 520 577 520 460 z m 337 661 q 294 661 257 620 q 220 580 187 497 q 173 461 159 412 q 146 363 134 306 q 126 267 122 231 q 118 195 118 164 q 118 97 142 61 q 165 25 208 25 q 247 25 279 56 q 312 86 341 151 q 381 238 405 339 q 428 439 428 525 q 428 590 405 626 q 381 661 337 661 z"},"F":{"x_min":0,"x_max":664,"ha":664,"o":"m -27 0 l -18 44 l 36 49 q 56 51 66 59 q 76 67 80 84 l 213 607 q 216 621 218 632 q 220 643 220 649 q 220 665 209 670 q 198 676 153 677 l 113 678 l 121 722 l 699 722 l 659 478 l 618 478 q 616 557 611 586 q 605 615 594 632 q 576 657 541 667 q 506 677 428 677 q 373 677 353 669 q 334 661 328 638 l 268 402 q 283 401 290 400 q 297 400 303 400 q 371 400 410 431 q 450 461 469 529 l 514 529 l 422 188 l 378 188 q 382 208 384 227 q 386 245 386 262 q 386 318 364 338 q 341 358 280 358 l 257 358 l 197 116 l 196 113 q 189 86 189 73 q 189 58 201 52 q 214 46 256 45 l 306 44 l 298 0 z"},"`":{"x_min":0,"x_max":500,"ha":500,"o":"m 382 527 l 343 527 l 213 624 q 199 635 191 645 q 184 656 184 666 q 184 682 195 693 q 205 703 221 703 q 231 703 242 697 q 252 690 262 678 z"},"k":{"x_min":0,"x_max":549,"ha":549,"o":"m 86 0 l -5 0 l 176 604 l 178 610 q 188 647 188 656 q 188 675 174 681 q 160 688 101 688 l 110 723 l 298 734 l 185 337 q 239 407 284 438 q 329 469 375 469 q 415 469 441 443 q 468 417 468 376 q 468 329 424 289 q 380 249 289 213 q 309 197 319 178 q 329 160 335 122 q 338 104 340 77 q 343 35 360 35 q 375 35 403 68 q 431 102 457 154 l 488 138 q 458 67 415 26 q 372 -15 330 -15 q 291 -15 272 10 q 253 35 253 89 q 253 126 255 166 q 256 175 256 177 q 256 191 250 196 q 245 201 216 201 q 198 201 191 206 q 185 210 185 221 q 185 231 192 237 q 198 243 210 243 q 217 243 226 241 q 236 240 251 236 q 313 252 352 288 q 390 324 390 365 q 390 389 376 403 q 363 417 339 417 q 317 417 290 400 q 264 384 235 352 q 191 304 162 240 q 132 177 99 50 z"},"u":{"x_min":0,"x_max":606,"ha":606,"o":"m 316 113 q 270 50 222 16 q 174 -17 128 -17 q 83 -17 58 6 q 33 29 33 72 q 33 83 38 105 q 42 127 50 151 l 112 337 q 118 354 121 368 q 124 382 124 389 q 124 407 111 414 q 97 420 40 420 l 49 456 l 238 467 l 131 137 q 124 116 121 103 q 118 89 118 79 q 118 60 130 49 q 142 38 162 38 q 224 38 283 123 q 341 207 393 372 l 420 456 l 510 456 q 450 301 417 197 q 385 94 385 57 q 385 42 390 36 q 395 30 406 30 q 424 30 452 59 q 479 88 521 151 l 548 132 q 503 56 463 20 q 422 -17 384 -17 q 351 -17 330 4 q 309 26 309 60 q 309 69 311 82 q 312 94 316 113 z"},"]":{"x_min":0,"x_max":331,"ha":331,"o":"m 135 722 l 362 722 l 146 -108 l -65 -108 l -60 -76 l 86 -76 l 286 691 l 131 691 z"},"U":{"x_min":0,"x_max":808,"ha":808,"o":"m 118 288 l 198 607 q 202 621 204 633 q 206 644 206 649 q 206 665 194 670 q 182 676 140 677 l 103 678 l 112 722 l 425 722 l 416 678 l 357 674 q 336 672 327 664 q 317 655 310 625 l 228 294 q 227 288 223 275 q 206 206 206 176 q 206 108 248 68 q 290 28 361 28 q 449 28 509 87 q 569 146 598 261 l 669 547 q 670 550 671 555 q 679 590 679 605 q 679 641 655 658 q 631 676 578 678 l 584 722 l 857 722 l 850 678 q 795 672 769 647 q 742 623 726 562 l 644 241 q 609 103 535 42 q 462 -19 332 -19 q 228 -19 163 33 q 97 85 97 167 q 97 206 118 288 z"},"o":{"x_min":0,"x_max":500,"ha":500,"o":"m -3 172 q -3 219 13 269 q 30 319 59 359 q 100 416 153 445 q 205 473 268 473 q 345 473 395 420 q 444 367 444 284 q 444 229 425 177 q 405 124 371 83 q 328 33 281 8 q 233 -17 180 -17 q 97 -17 47 34 q -3 86 -3 172 z m 87 129 q 87 78 111 49 q 134 21 177 21 q 208 21 237 38 q 265 55 285 85 q 316 132 336 199 q 355 265 355 325 q 355 378 331 407 q 307 436 263 436 q 229 436 198 414 q 167 393 144 351 q 119 308 103 246 q 87 184 87 129 z"},"N":{"x_min":0,"x_max":816,"ha":816,"o":"m 849 722 l 842 678 q 795 676 765 646 q 735 617 721 559 l 579 -13 l 543 -13 l 253 591 l 152 175 q 151 171 149 164 q 142 132 142 118 q 142 82 166 64 q 190 46 243 44 l 237 0 l -36 0 l -29 44 q 26 50 53 75 q 80 101 95 161 l 217 641 q 210 659 197 667 q 184 675 160 677 l 100 680 l 107 722 l 311 722 l 574 169 l 674 575 q 677 585 678 594 q 679 603 679 611 q 679 643 656 660 q 633 677 586 679 l 593 722 z"},"+":{"x_min":0,"x_max":833,"ha":833,"o":"m 382 596 l 451 596 l 451 332 l 709 332 l 709 264 l 451 264 l 451 0 l 382 0 l 382 264 l 124 264 l 124 332 l 382 332 z"},"G":{"x_min":0,"x_max":778,"ha":778,"o":"m 753 292 l 695 292 q 678 292 668 283 q 658 273 652 253 l 577 -18 l 539 -18 l 532 65 q 487 22 437 2 q 386 -18 324 -18 q 194 -18 119 60 q 43 138 43 273 q 43 357 73 438 q 103 518 160 589 q 220 662 297 702 q 374 742 455 742 q 512 742 558 720 q 604 699 641 655 l 707 722 l 741 722 l 681 438 l 640 445 l 640 464 q 640 575 591 636 q 542 697 453 697 q 397 697 349 665 q 301 634 261 571 q 215 500 187 403 q 159 306 159 217 q 159 128 206 77 q 253 25 333 25 q 396 25 439 53 q 483 82 512 141 q 525 169 534 204 q 543 240 543 264 q 543 280 531 286 q 519 292 478 292 l 441 292 l 450 339 l 763 339 z"},"q":{"x_min":0,"x_max":539,"ha":539,"o":"m 294 60 q 269 24 229 5 q 190 -15 145 -15 q 81 -15 40 32 q -2 79 -2 152 q -2 214 26 279 q 54 344 102 392 q 139 429 184 450 q 229 470 273 470 q 313 470 344 453 q 376 437 404 400 l 460 468 l 494 468 l 331 -111 q 328 -121 327 -130 q 325 -140 325 -147 q 325 -161 336 -166 q 347 -171 378 -171 l 400 -171 l 389 -208 l 148 -208 l 159 -171 l 203 -168 q 218 -167 226 -160 q 233 -153 241 -126 z m 91 135 q 91 85 114 59 q 136 33 179 33 q 219 33 250 57 q 281 81 306 131 q 331 180 346 236 q 361 292 361 332 q 361 380 339 407 q 316 433 275 433 q 243 433 212 412 q 181 392 156 353 q 128 310 109 248 q 91 187 91 135 z"},"d":{"x_min":0,"x_max":602,"ha":602,"o":"m 315 68 q 280 27 238 5 q 196 -16 151 -16 q 83 -16 42 31 q 0 78 0 156 q 0 218 27 282 q 54 346 101 395 q 136 432 180 453 q 223 473 268 473 q 311 473 343 453 q 375 433 394 394 l 459 613 l 460 618 q 471 656 471 665 q 471 684 456 690 q 441 697 373 697 l 385 732 l 586 743 l 483 404 q 426 217 409 151 q 391 85 391 67 q 391 54 396 46 q 402 39 412 39 q 430 39 457 70 q 484 100 524 165 l 554 147 q 509 66 467 27 q 426 -11 383 -11 q 350 -11 332 6 q 315 24 315 58 z m 93 136 q 93 87 117 60 q 141 33 183 33 q 220 33 252 58 q 285 82 311 130 q 334 173 350 232 q 365 290 365 333 q 365 380 342 406 q 318 432 277 432 q 244 432 214 412 q 184 392 158 353 q 130 309 111 248 q 93 186 93 136 z"},"1":{"x_min":0,"x_max":546,"ha":546,"o":"m 42 0 l 53 44 l 139 49 q 159 50 169 60 q 179 69 186 98 l 303 567 q 304 569 304 570 q 304 572 304 575 q 304 584 294 588 q 285 592 250 592 l 240 592 l 167 592 l 178 634 q 251 642 308 660 q 364 678 403 707 l 428 707 l 281 116 q 278 104 276 92 q 274 80 274 73 q 274 59 284 53 q 293 47 319 46 l 407 44 l 395 0 z"},"5":{"x_min":0,"x_max":546,"ha":546,"o":"m 169 414 q 199 433 232 441 q 264 450 304 450 q 383 450 433 400 q 483 349 483 268 q 483 222 467 178 q 452 134 422 97 q 379 43 319 13 q 258 -18 194 -18 q 112 -18 60 26 q 7 71 7 138 q 7 177 28 201 q 48 226 80 226 q 106 226 124 210 q 141 194 141 171 q 141 151 133 136 q 125 122 110 112 q 105 109 98 105 q 78 96 78 85 q 78 62 109 43 q 140 24 184 24 q 221 24 253 39 q 285 54 311 84 q 340 117 358 169 q 377 220 377 267 q 377 330 345 364 q 313 398 255 398 q 229 398 201 388 q 174 377 152 359 q 147 333 135 318 q 123 303 106 303 q 93 303 85 312 q 77 320 77 333 q 77 348 86 361 q 94 374 112 386 q 145 489 167 568 q 190 647 206 711 q 265 696 313 689 q 362 681 394 681 q 438 681 475 689 q 512 697 543 713 l 554 705 q 528 648 481 620 q 434 592 362 592 q 332 592 298 596 q 265 600 226 607 q 213 559 199 511 q 185 463 169 414 z"}}}
